<!-- Generated by IcoMoon.io -->
<svg version="1.1" xmlns="http://www.w3.org/2000/svg" width="32" height="32" viewBox="0 0 32 32">
<title>avatar</title>
<path d="M16.002 31.994c-4.588 0-9.177-0.011-13.766 0.006-1.371 0.005-2.271-1.096-2.235-2.254 0.049-1.573 0.249-3.117 0.841-4.589 0.363-0.908 0.869-1.723 1.66-2.331 0.512-0.393 1.109-0.629 1.691-0.888 2.126-0.948 4.335-1.634 6.616-2.092 0.011-0.003 0.022-0.003 0.033-0.007 0.393-0.143 0.701-0.013 1.048 0.209 2.344 1.496 4.804 1.723 7.35 0.55 0.434-0.2 0.821-0.502 1.224-0.766 0.093-0.061 0.168-0.093 0.285-0.072 2.838 0.521 5.556 1.403 8.144 2.68 0.931 0.46 1.548 1.225 2.010 2.13 0.504 0.989 0.788 2.048 0.931 3.141 0.088 0.675 0.148 1.358 0.165 2.038 0.034 1.307-0.908 2.242-2.213 2.242h-13.784zM8.514 7.848c-0.008-1.192 0.151-2.35 0.616-3.452 0.889-2.11 2.44-3.49 4.652-4.080 1.988-0.532 3.948-0.412 5.807 0.511 1.95 0.968 3.121 2.576 3.65 4.667 0.212 0.835 0.26 1.686 0.227 2.544-0.061 1.548-0.3 3.067-0.76 4.548-0.49 1.575-1.173 3.053-2.242 4.328-0.788 0.941-1.722 1.692-2.914 2.050-1.873 0.56-3.554 0.141-5.050-1.078-0.976-0.796-1.686-1.806-2.254-2.917-0.824-1.611-1.313-3.327-1.541-5.116-0.085-0.665-0.129-1.335-0.191-2.004z"></path>
</svg>
