<!-- Generated by IcoMoon.io -->
<svg version="1.1" xmlns="http://www.w3.org/2000/svg" width="32" height="32" viewBox="0 0 32 32">
<title>back</title>
<path d="M8.203 16.32c0-0.182 0.037-0.364 0.11-0.547 0.069-0.177 0.169-0.328 0.296-0.453l0-0 5.032-5.023c0.125-0.134 0.275-0.242 0.444-0.317l0.009-0.003c0.166-0.073 0.33-0.11 0.492-0.11 0.406 0 0.732 0.123 0.976 0.367s0.368 0.55 0.368 0.914c0 0.214-0.045 0.402-0.133 0.563-0.086 0.159-0.19 0.296-0.312 0.413l-0.001 0.001-1.75 1.75-2.312 2.14-0.649-0.89 3.305-0.164h8.281c0.427 0 0.771 0.125 1.032 0.375 0.265 0.25 0.398 0.578 0.398 0.984 0 0.412-0.133 0.742-0.398 0.992-0.26 0.25-0.604 0.375-1.032 0.375h-8.28l-3.306-0.171 0.649-0.875 2.312 2.132 1.75 1.743c0.125 0.12 0.23 0.26 0.313 0.422 0.088 0.161 0.133 0.346 0.133 0.554 0 0.365-0.123 0.67-0.367 0.914-0.245 0.245-0.57 0.367-0.977 0.367-0.344 0-0.656-0.14-0.938-0.421l-5.038-5.024c-0.125-0.128-0.226-0.281-0.293-0.451l-0.003-0.009c-0.068-0.162-0.109-0.35-0.11-0.548v-0z"></path>
</svg>
