<!-- Generated by IcoMoon.io -->
<svg version="1.1" xmlns="http://www.w3.org/2000/svg" width="32" height="32" viewBox="0 0 32 32">
<title>buy</title>
<path d="M16 8.667c0.736 0 1.333-0.597 1.333-1.333s-0.597-1.333-1.333-1.333v0 2.667zM26.667 16.667c0-0.736-0.597-1.333-1.333-1.333s-1.333 0.597-1.333 1.333v0h2.667zM15.333 16c-0.736 0-1.333 0.597-1.333 1.333s0.597 1.333 1.333 1.333v0-2.667zM20.784 18.667c0.736 0 1.333-0.597 1.333-1.333s-0.597-1.333-1.333-1.333v0 2.667zM14 17.333c0 0.736 0.597 1.333 1.333 1.333s1.333-0.597 1.333-1.333v0h-2.667zM16.667 11.812c0-0.736-0.597-1.333-1.333-1.333s-1.333 0.597-1.333 1.333v0h2.667zM14.391 16.391c-0.232 0.24-0.374 0.566-0.374 0.926 0 0.736 0.597 1.333 1.333 1.333 0.36 0 0.687-0.143 0.927-0.375l-0 0-1.885-1.885zM25.609 8.943c0.232-0.24 0.374-0.566 0.374-0.926 0-0.736-0.597-1.333-1.333-1.333-0.36 0-0.687 0.143-0.927 0.375l0-0 1.885 1.885zM16 6h-4v2.667h4v-2.667zM12 6c-3.682 0-6.667 2.985-6.667 6.667v0h2.667c0-2.209 1.791-4 4-4v0-2.667zM5.333 12.667v8h2.667v-8h-2.667zM5.333 20.667c0 3.682 2.985 6.667 6.667 6.667v0-2.667c-2.209 0-4-1.791-4-4v0h-2.667zM12 27.333h8v-2.667h-8v2.667zM20 27.333c3.682 0 6.667-2.985 6.667-6.667v0h-2.667c0 2.209-1.791 4-4 4v0 2.667zM26.667 20.667v-4h-2.667v4h2.667zM15.333 18.667h5.451v-2.667h-5.451v2.667zM16.667 17.333v-5.521h-2.667v5.521h2.667zM16.276 18.276l9.333-9.333-1.885-1.885-9.333 9.333 1.885 1.885z"></path>
</svg>
