<!-- Generated by IcoMoon.io -->
<svg version="1.1" xmlns="http://www.w3.org/2000/svg" width="32" height="32" viewBox="0 0 32 32">
<title>checkbox</title>
<path d="M16 27.292c-0.021 0-0.046 0-0.071 0-1.618 0-3.156-0.34-4.547-0.953l0.072 0.028c-1.456-0.633-2.699-1.486-3.75-2.532l0 0c-1.047-1.052-1.904-2.295-2.513-3.672l-0.031-0.078c-0.578-1.321-0.914-2.86-0.914-4.477 0-0.024 0-0.048 0-0.073l-0 0.004c0-1.61 0.304-3.122 0.914-4.536 0.636-1.456 1.493-2.7 2.544-3.75l0-0c1.044-1.054 2.283-1.912 3.66-2.514l0.076-0.030c1.319-0.584 2.857-0.924 4.475-0.924 0.025 0 0.050 0 0.075 0l-0.004-0c1.61 0 3.126 0.308 4.548 0.924 2.835 1.241 5.051 3.457 6.262 6.215l0.030 0.077c0.618 1.416 0.926 2.928 0.926 4.538 0 1.608-0.308 3.124-0.926 4.546-0.64 1.455-1.496 2.698-2.543 3.751l0.001-0.001c-1.049 1.050-2.293 1.903-3.673 2.502l-0.077 0.030c-1.315 0.585-2.849 0.926-4.462 0.926-0.025 0-0.050-0-0.076-0l0.004 0zM14.71 21.2c0.002 0 0.005 0 0.008 0 0.149 0 0.288-0.039 0.408-0.108l-0.004 0.002c0.134-0.079 0.244-0.186 0.326-0.312l0.002-0.004 5.8-9.070c0.052-0.081 0.099-0.174 0.136-0.271l0.004-0.011c0.043-0.089 0.069-0.193 0.070-0.304v-0c0-0.005 0-0.012 0-0.018 0-0.193-0.091-0.365-0.233-0.475l-0.001-0.001c-0.139-0.116-0.319-0.186-0.515-0.186-0 0-0.001 0-0.001 0h0c-0.256 0-0.472 0.136-0.644 0.41l-5.39 8.542-2.766-3.398c-0.087-0.12-0.197-0.218-0.323-0.289l-0.005-0.003c-0.098-0.052-0.214-0.082-0.336-0.082-0.005 0-0.011 0-0.016 0h0.001c-0.002-0-0.005-0-0.008-0-0.197 0-0.373 0.085-0.496 0.22l-0.001 0.001c-0.13 0.133-0.21 0.316-0.21 0.517 0 0.005 0 0.009 0 0.014v-0.001c0 0.1 0.020 0.202 0.060 0.304 0.045 0.107 0.099 0.199 0.164 0.283l-0.002-0.003 3.188 3.82c0.116 0.15 0.238 0.26 0.364 0.33 0.119 0.059 0.259 0.094 0.408 0.094 0.004 0 0.009-0 0.013-0h-0.001z"></path>
</svg>
