<!-- Generated by IcoMoon.io -->
<svg version="1.1" xmlns="http://www.w3.org/2000/svg" width="32" height="32" viewBox="0 0 32 32">
<title>durability</title>
<path d="M19.287 24.368c-1.613 0-3.226-0.010-4.848 0-0.637 0-1.153-0.197-1.613-0.62-0.268-0.255-0.555-0.497-0.856-0.722l-0.025-0.018c-0.778-0.553-2.063-0.563-2.86 0.178-0.197 0.188-0.403 0.366-0.6 0.553-0.389 0.389-0.927 0.629-1.521 0.629-0.009 0-0.018-0-0.027-0h0.001c-0.882-0.010-1.754 0.018-2.635-0.020-1.21-0.046-2.1-0.759-2.27-1.95-0.122-0.881 0.085-1.678 0.713-2.334 0.084-0.085 0.056-0.15 0.019-0.235-0.347-0.834-0.45-1.716-0.394-2.607 0.088-1.137 0.383-2.185 0.847-3.136l-0.022 0.051c0.253-0.543 0.553-1.078 0.863-1.594 0.487-0.816 1.36-1.031 2.203-0.581 0.47 0.253 0.938 0.525 1.416 0.76 0.741 0.365 1.51 0.646 2.326 0.787 1.069 0.178 2.090 0.085 3.038-0.488 0.103-0.065 0.131-0.112 0.084-0.225-0.301-0.732-0.54-1.587-0.676-2.476l-0.008-0.064c-0.056-0.47-0.085-0.93 0.047-1.398 0.225-0.788 0.937-1.097 1.631-0.656 1.295 0.817 2.236 1.447 3.164 2.096l-0.276-0.183c3.442 2.381 6.818 4.857 10.175 7.351 0.6 0.44 1.218 0.863 1.725 1.425 0.403 0.441 0.74 0.929 0.938 1.5 0.365 1.051 0.075 2.008-0.797 2.683-0.6 0.468-1.294 0.731-2.026 0.91-1.088 0.271-2.203 0.355-3.32 0.355h-4.416v0.029zM18.743 14.813c-1.34 1.753-2.663 3.488-4.013 5.25 0.094 0 0.15 0.010 0.206 0.010h1.36c0.006 0 0.013 0.001 0.020 0.001 0.109 0 0.204-0.055 0.26-0.14l0.001-0.001c2.381-3.321 3.403-4.698 4.43-6.071l-1.317 1.841 0.122-0.15c0.74 0.525 1.472 1.041 2.213 1.557-0.722 0.984-1.444 1.96-2.175 2.954 0.084 0 0.13 0.009 0.178 0.009h0.938c1.115-0.010 2.222 0.037 3.328-0.103 0.432-0.056 0.854-0.14 1.238-0.357 0.422-0.243 0.535-0.59 0.319-1.022-0.244-0.487-0.638-0.862-1.069-1.181-1.397-1.022-2.785-2.054-4.192-3.066-2.166-1.566-4.341-3.123-6.573-4.586-0.066-0.037-0.131-0.084-0.206-0.131 0 0.056-0.010 0.094 0 0.122 0.056 0.366 0.075 0.75 0.178 1.106 0.15 0.572 0.347 1.135 0.544 1.698 0.216 0.628 0.094 1.060-0.44 1.444-0.34 0.25-0.731 0.462-1.149 0.617l-0.033 0.011c-1.154 0.431-2.335 0.422-3.526 0.15-1.266-0.29-2.429-0.835-3.545-1.491-0.093-0.056-0.187-0.113-0.28-0.16-0.123-0.056-0.217-0.027-0.292 0.085-0.787 1.238-1.397 2.541-1.51 4.032-0.074 0.938 0.123 1.82 0.591 2.635 0.076 0.122 0.15 0.169 0.3 0.169h6.48c0.14 0 0.225-0.047 0.319-0.16l4.98-6.526 0.112-0.14c0.74 0.524 1.472 1.030 2.213 1.556l-0.010 0.037z"></path>
</svg>
