<!-- Generated by IcoMoon.io -->
<svg version="1.1" xmlns="http://www.w3.org/2000/svg" width="32" height="32" viewBox="0 0 32 32">
<title>pause</title>
<path d="M15.988 29.492c-1.842 0-3.575-0.35-5.2-1.050-1.666-0.722-3.088-1.699-4.288-2.9l-0-0c-1.198-1.197-2.176-2.615-2.865-4.187l-0.034-0.088c-0.7-1.625-1.050-3.363-1.050-5.212 0-1.851 0.35-3.584 1.050-5.2 0.722-1.666 1.7-3.088 2.9-4.288l0-0c1.196-1.206 2.619-2.185 4.201-2.866l0.087-0.033c1.625-0.7 3.358-1.050 5.2-1.050 1.85 0 3.587 0.35 5.212 1.050 1.665 0.713 3.084 1.692 4.274 2.899l0.002 0.002c1.2 1.2 2.178 2.622 2.866 4.2l0.034 0.088c0.708 1.616 1.062 3.349 1.062 5.2 0 1.85-0.354 3.587-1.062 5.212-0.724 1.66-1.701 3.078-2.9 4.275l-0 0c-1.194 1.202-2.613 2.18-4.188 2.866l-0.087 0.034c-1.625 0.7-3.363 1.050-5.212 1.050zM12.075 21.429h1.625c0.375 0 0.662-0.1 0.862-0.3 0.2-0.208 0.3-0.483 0.3-0.825v-8.512c0-0.342-0.1-0.617-0.3-0.825s-0.487-0.313-0.862-0.313h-1.625c-0.367 0-0.654 0.104-0.863 0.312-0.2 0.209-0.3 0.484-0.3 0.825v8.513c0 0.341 0.1 0.617 0.3 0.825 0.209 0.2 0.496 0.3 0.863 0.3zM18.3 21.429h1.625c0.375 0 0.663-0.1 0.863-0.3 0.208-0.208 0.313-0.483 0.313-0.825v-8.512c0-0.342-0.105-0.617-0.313-0.825-0.2-0.209-0.487-0.313-0.863-0.313h-1.625c-0.366 0-0.654 0.104-0.862 0.312-0.2 0.209-0.3 0.484-0.3 0.825v8.513c0 0.341 0.1 0.617 0.3 0.825 0.208 0.2 0.496 0.3 0.862 0.3z"></path>
</svg>
