<!-- Generated by IcoMoon.io -->
<svg version="1.1" xmlns="http://www.w3.org/2000/svg" width="32" height="32" viewBox="0 0 32 32">
<title>power</title>
<path d="M22.698 16.085l-5.85 9.445c-0.091 0.144-0.214 0.261-0.36 0.341l-0.005 0.003c-0.132 0.073-0.289 0.115-0.456 0.115-0.010 0-0.019-0-0.029-0l0.001 0c-0.041 0.007-0.088 0.011-0.136 0.011s-0.095-0.004-0.142-0.012l0.005 0.001c-0.215-0.066-0.394-0.198-0.517-0.372l-0.002-0.003c-0.127-0.18-0.191-0.4-0.183-0.622v-5.985h-4.075c-0.367-0-0.709-0.103-1-0.282l0.008 0.005c-0.303-0.186-0.545-0.442-0.711-0.746l-0.005-0.010c-0.153-0.278-0.242-0.61-0.242-0.962 0-0.395 0.113-0.763 0.307-1.075l-0.005 0.009 5.85-9.445c0.109-0.193 0.276-0.342 0.477-0.427l0.006-0.002c0.107-0.045 0.231-0.071 0.361-0.071 0.099 0 0.194 0.015 0.284 0.043l-0.007-0.002c0.215 0.066 0.394 0.198 0.517 0.372l0.002 0.003c0.127 0.18 0.191 0.4 0.183 0.622v5.985h4.075c0.349 0 0.692 0.095 0.992 0.277s0.548 0.443 0.716 0.756c0.153 0.278 0.242 0.61 0.242 0.962 0 0.395-0.113 0.763-0.307 1.075l0.005-0.009z"></path>
</svg>
