<!-- Generated by IcoMoon.io -->
<svg version="1.1" xmlns="http://www.w3.org/2000/svg" width="32" height="32" viewBox="0 0 32 32">
<title>referral</title>
<path d="M16 27h-9.47c-0.709 0-1.291-0.433-1.474-1.096-0.035-0.13-0.055-0.279-0.056-0.433v-5.698c0-0.587 0.4-0.985 0.99-0.985h5.216c0.301 0 0.442-0.14 0.442-0.44v-2.47c0-0.42 0.175-0.734 0.561-0.909 0.116-0.052 0.252-0.083 0.394-0.083 0.002 0 0.004 0 0.006 0h6.782c0.568 0 0.961 0.412 0.961 0.991v5.509c0 0.32 0.14 0.46 0.457 0.46h5.194c0.456 0 0.808 0.23 0.94 0.629 0.036 0.111 0.057 0.237 0.057 0.349v2.639c0 0.88-0.66 1.536-1.544 1.536h-9.456zM18.155 12.715c-0.077-0.028-0.161-0.049-0.232-0.083-0.519-0.273-1.038-0.538-1.558-0.817-0.091-0.050-0.154-0.042-0.239 0-0.52 0.279-1.046 0.551-1.565 0.824-0.183 0.097-0.365 0.083-0.498-0.042-0.087-0.069-0.142-0.175-0.142-0.294 0-0.027 0.003-0.053 0.008-0.079l-0 0.002c0.098-0.594 0.204-1.187 0.309-1.78 0.014-0.098 0-0.168-0.070-0.238-0.428-0.412-0.842-0.824-1.264-1.236-0.161-0.16-0.19-0.37-0.084-0.544 0.064-0.105 0.174-0.177 0.3-0.189l0.002-0c0.604-0.090 1.207-0.174 1.811-0.258 0.070-0.007 0.105-0.042 0.14-0.098 0.267-0.545 0.534-1.082 0.8-1.62 0.113-0.223 0.324-0.314 0.534-0.237 0.114 0.043 0.202 0.131 0.245 0.241l0.001 0.003c0.26 0.538 0.526 1.068 0.786 1.606 0.035 0.077 0.077 0.105 0.162 0.112 0.596 0.083 1.193 0.167 1.79 0.258 0.168 0.017 0.304 0.134 0.349 0.29l0.001 0.003c0.014 0.040 0.023 0.086 0.023 0.135 0 0.121-0.052 0.229-0.134 0.305l-0 0c-0.428 0.419-0.856 0.838-1.291 1.257-0.064 0.063-0.078 0.118-0.064 0.202 0.106 0.6 0.211 1.201 0.31 1.802 0.041 0.25-0.155 0.481-0.422 0.495l-0.007-0.020z"></path>
</svg>
