<!-- Generated by IcoMoon.io -->
<svg version="1.1" xmlns="http://www.w3.org/2000/svg" width="32" height="32" viewBox="0 0 32 32">
<title>runner</title>
<path d="M18.313 14.31c-0.43 0.98-0.86 1.95-1.29 2.93h2.94c0.48 0 0.87 0.19 1.15 0.57 1.38 1.9 2.75 3.8 4.13 5.7 0.23 0.31 0.29 0.65 0.15 1.020-0.27 0.69-1.14 0.88-1.68 0.35-0.49-0.48-0.97-0.97-1.45-1.46-0.95-0.99-1.89-1.98-2.83-2.97-0.080-0.080-0.15-0.1-0.26-0.1-0.95 0.070-1.9 0.14-2.85 0.2-0.74 0.050-1.49 0.090-2.23 0.14-0.080 0-0.17 0.060-0.22 0.12-1.11 1.34-2.21 2.69-3.32 4.040-0.55 0.67-1.29 0.81-2.020 0.33-1.68-1.090-3.36-2.18-5.030-3.27-0.35-0.23-0.53-0.55-0.5-0.96 0.060-0.73 0.77-1.17 1.46-0.88 0.81 0.33 1.62 0.68 2.42 1.040 0.63 0.28 1.26 0.57 1.9 0.85 0.030-0.050 0.070-0.1 0.1-0.14 0.78-1.18 1.55-2.37 2.33-3.55 0.030-0.050 0.070-0.11 0.090-0.16 0.79-1.93 1.57-3.86 2.35-5.79 0.010-0.030 0.030-0.070 0.040-0.11-0.16-0.090-0.33-0.18-0.49-0.27-0.58-0.32-1.16-0.64-1.75-0.96-0.046-0.025-0.101-0.040-0.159-0.040-0.029 0-0.056 0.004-0.083 0.010l0.002-0.001c-1.15 0.34-2.3 0.69-3.45 1.040-0.7 0.21-1.39-0.29-1.36-1.010 0.020-0.41 0.22-0.73 0.6-0.9 1.35-0.61 2.7-1.21 4.060-1.81 0.31-0.14 0.61-0.12 0.92 0.020 1.2 0.53 2.39 1.060 3.59 1.59 2.080 0.92 4.17 1.85 6.25 2.78 0.1 0.040 0.18 0.050 0.28 0 1.58-0.63 3.16-1.26 4.75-1.89 0.54-0.22 1.12 0 1.36 0.51s0.030 1.1-0.49 1.36c-1.73 0.89-3.47 1.77-5.21 2.66-0.33 0.17-0.66 0.19-1.010 0.070-1.010-0.34-2.020-0.67-3.030-1-0.040-0.010-0.090-0.030-0.15-0.050l-0.010-0.010z"></path>
<path d="M20.063 6c1.26 0 2.28 1.030 2.28 2.29 0 1.25-1.020 2.27-2.28 2.28-1.27 0-2.3-1.020-2.3-2.29 0.013-1.261 1.037-2.278 2.3-2.28h0z"></path>
</svg>
