<!-- Generated by IcoMoon.io -->
<svg version="1.1" xmlns="http://www.w3.org/2000/svg" width="32" height="32" viewBox="0 0 32 32">
<title>settings</title>
<path d="M4.89 21.003c-1.41-2.443-2.116-3.663-2.116-5.003s0.706-2.561 2.116-5.003l1.156-2c1.409-2.439 2.114-3.657 3.274-4.327s2.568-0.67 5.384-0.67h2.591c2.817 0 4.225 0 5.385 0.67s1.865 1.888 3.274 4.327l1.15 1.992c1.413 2.445 2.12 3.668 2.119 5.010s-0.71 2.565-2.125 5.008l-1.164 2.008c-1.41 2.433-2.116 3.65-3.274 4.317-1.16 0.668-2.566 0.668-5.378 0.668h-2.578c-2.816 0-4.225 0-5.384-0.67-1.16-0.669-1.865-1.888-3.274-4.327l-1.156-2zM10.75 16c0 2.899 2.351 5.25 5.25 5.25s5.25-2.351 5.25-5.25v0c0-2.899-2.351-5.25-5.25-5.25s-5.25 2.351-5.25 5.25v0z"></path>
</svg>
