<!-- Generated by IcoMoon.io -->
<svg version="1.1" xmlns="http://www.w3.org/2000/svg" width="32" height="32" viewBox="0 0 32 32">
<title>shop</title>
<path d="M12.525 14.385c0.001 0 0.003 0 0.004 0 0.461 0 0.835-0.372 0.837-0.833v-3.25c0-1.453 1.193-2.635 2.658-2.635s2.659 1.182 2.659 2.635v3.25c0 0.46 0.376 0.833 0.84 0.833 0.001 0 0.003 0 0.004 0 0.461 0 0.835-0.372 0.837-0.833v-3.25c0-2.372-1.946-4.302-4.34-4.302-2.392 0-4.34 1.93-4.34 4.302v3.25c0 0.46 0.377 0.833 0.841 0.833z"></path>
<path d="M25.668 12.513h-4.462v1.040c0 0.918-0.755 1.666-1.682 1.666-0.002 0-0.003 0-0.005 0-0.922 0-1.671-0.745-1.676-1.667v-1.040h-3.636v1.040c0 0.92-0.754 1.667-1.681 1.667-0.002 0-0.003 0-0.005 0-0.922 0-1.671-0.745-1.676-1.667v-1.041h-4.513c-0.232 0-0.375 0.182-0.32 0.405l2.941 11.874c0.178 0.669 0.887 1.209 1.583 1.209h10.929c0.696 0 1.404-0.541 1.582-1.209l2.941-11.873c0.055-0.224-0.088-0.405-0.32-0.405z"></path>
</svg>
