<!-- Generated by IcoMoon.io -->
<svg version="1.1" xmlns="http://www.w3.org/2000/svg" width="32" height="32" viewBox="0 0 32 32">
<title>steps</title>
<path d="M8.016 18.525c-0.74-1.537-1.489-3.067-2.193-4.621-0.523-1.129-0.515-2.347-0.471-3.565 0.035-0.933 0.2-1.84 0.592-2.693 0.34-0.747 0.853-1.351 1.541-1.804 1.263-0.817 2.577-0.569 3.544 0.187 1.175 0.916 1.845 2.16 2.133 3.627 0.208 1.057 0.165 2.133 0.121 3.2-0.027 0.781-0.087 1.573-0.069 2.356 0.017 0.551 0.121 1.101 0.208 1.644 0.036 0.204 0 0.301-0.217 0.356-1.68 0.417-3.36 0.853-5.040 1.28-0.027 0-0.063 0.008-0.157 0.027l0.008 0.008zM24.804 20.179c-1.787 0.516-3.544 1.013-5.32 1.529-0.071-0.169-0.14-0.329-0.192-0.507-0.247-0.696-0.55-1.298-0.917-1.854l0.019 0.031c-0.557-0.88-1.132-1.751-1.645-2.648-0.696-1.219-1.071-2.525-0.957-3.956 0.041-0.615 0.181-1.187 0.405-1.715l-0.013 0.035c0.705-1.627 2.245-2.337 3.952-1.787 0.453 0.143 0.907 0.364 1.28 0.649 1.499 1.137 2.429 2.701 2.987 4.488 0.183 0.579 0.217 1.219 0.253 1.832 0.069 1.288 0.096 2.577 0.147 3.893v0.008zM24.943 20.944c0.148 0.657 0.313 1.307 0.444 1.955 0.061 0.32 0.079 0.649 0.096 0.969 0.035 0.827-0.287 1.493-0.915 2.009-0.827 0.675-1.784 0.924-2.82 0.72-1.124-0.223-1.733-1.032-1.968-2.107-0.131-0.623-0.105-1.272-0.14-1.912 0-0.044 0.061-0.124 0.113-0.141 1.716-0.499 3.431-0.987 5.189-1.493zM8.339 19.253l5.381-1.376c0.705 0.808 0.992 1.751 0.8 2.817-0.087 0.463-0.296 0.88-0.644 1.191-0.975 0.889-2.099 1.2-3.369 0.809-0.715-0.213-1.211-0.72-1.489-1.413-0.261-0.649-0.453-1.333-0.68-2.036v0.009z"></path>
</svg>
