<!-- Generated by IcoMoon.io -->
<svg version="1.1" xmlns="http://www.w3.org/2000/svg" width="32" height="32" viewBox="0 0 32 32">
<title>time</title>
<path d="M16.531 27.677c-0.025 0-0.055 0-0.085 0-1.548 0-3.022-0.318-4.36-0.893l0.072 0.027c-1.39-0.588-2.576-1.397-3.573-2.396l-0-0c-0.995-0.995-1.804-2.177-2.368-3.489l-0.028-0.073c-0.541-1.269-0.855-2.746-0.855-4.296 0-0.028 0-0.056 0-0.084l-0 0.004c0-1.228 0.195-2.405 0.584-3.531 0.406-1.173 0.949-2.191 1.625-3.104l-0.022 0.031c0.36-0.507 0.791-0.787 1.291-0.844 0.507-0.061 0.941 0.073 1.303 0.407 0.375 0.347 0.539 0.723 0.489 1.125-0.048 0.396-0.227 0.829-0.531 1.301-0.447 0.622-0.817 1.34-1.077 2.109l-0.017 0.057c-0.252 0.728-0.397 1.567-0.397 2.44 0 0.003 0 0.005 0 0.008v-0c0 1.091 0.203 2.119 0.605 3.084 0.423 0.983 0.999 1.823 1.707 2.531l0 0c0.731 0.729 1.573 1.303 2.533 1.72 0.964 0.409 2 0.613 3.103 0.613 1.105 0 2.14-0.204 3.105-0.613 0.984-0.427 1.824-1.007 2.53-1.719l0.001-0.001c0.703-0.709 1.275-1.548 1.677-2.478l0.020-0.052c0.389-0.896 0.615-1.94 0.615-3.037 0-0.016-0-0.033-0-0.049v0.003c0-1.139-0.215-2.204-0.645-3.197-0.441-1.020-1.049-1.889-1.799-2.612l-0.002-0.002c-0.743-0.723-1.63-1.302-2.613-1.689l-0.054-0.019c-0.828-0.337-1.788-0.532-2.795-0.532-0.152 0-0.304 0.005-0.454 0.013l0.021-0.001 1.468-1.887v3.375c0 0.011 0.001 0.025 0.001 0.038 0 0.359-0.143 0.684-0.375 0.922l0-0c-0.227 0.231-0.543 0.374-0.892 0.374-0.016 0-0.032-0-0.047-0.001l0.002 0c-0.011 0-0.024 0.001-0.037 0.001-0.352 0-0.67-0.143-0.901-0.374l-0-0c-0.227-0.239-0.366-0.564-0.366-0.92 0-0.014 0-0.028 0.001-0.042l-0 0.002v-3.249c0-0.431 0.143-0.771 0.427-1.021 0.293-0.249 0.664-0.375 1.115-0.375 0.027-0 0.059-0 0.091-0 1.547 0 3.020 0.318 4.357 0.892l-0.072-0.027c1.391 0.585 2.578 1.394 3.573 2.395l0.001 0.001c0.995 0.996 1.803 2.178 2.367 3.49l0.028 0.073c0.547 1.266 0.866 2.74 0.866 4.288 0 0.030-0 0.061-0 0.091l0-0.005c0 1.556-0.288 3.013-0.865 4.376-0.593 1.385-1.405 2.568-2.405 3.561l-0.001 0.001c-0.993 1-2.176 1.809-3.491 2.369l-0.072 0.027c-1.266 0.547-2.74 0.866-4.288 0.866-0.031 0-0.062-0-0.093-0l0.005 0zM18.229 18.364c-0.357 0.375-0.859 0.609-1.417 0.609-0.299 0-0.582-0.067-0.835-0.187l0.012 0.005c-0.381-0.179-0.69-0.458-0.902-0.803l-0.005-0.009-3.031-4.667c-0.195-0.305-0.253-0.58-0.177-0.823 0.068-0.24 0.251-0.427 0.484-0.499l0.005-0.001c0.251-0.083 0.532-0.024 0.844 0.177l4.656 3.021c0.383 0.249 0.653 0.559 0.813 0.927 0.167 0.368 0.215 0.753 0.147 1.156-0.064 0.396-0.261 0.76-0.595 1.093z"></path>
</svg>
