<svg width="80" height="80" viewBox="0 0 80 80" fill="none" xmlns="http://www.w3.org/2000/svg">
<g filter="url(#filter0_biii_492_9389)">
<path d="M39.9402 42.5899C38.3402 43.8099 36.9002 45.1799 35.6802 46.7699C33.9202 49.0599 32.7202 51.5999 32.3702 54.4899C32.2502 55.4799 32.3002 56.4899 32.2802 57.4899C32.2802 57.6099 32.3102 57.7299 32.3102 57.8499C32.3402 58.4499 31.9802 58.6899 31.4502 58.4099C30.0402 57.6599 28.7502 56.7299 27.5902 55.6199C24.4202 52.5799 22.5702 48.8699 22.0602 44.5099C21.7902 42.2299 22.0602 39.9699 22.5202 37.7299C23.2402 34.2299 24.3802 30.8699 26.1402 27.7499C27.0902 26.0699 28.2002 24.5299 29.7002 23.2999C29.9302 23.1199 30.1402 22.8699 30.4802 23.0699C30.8002 23.2599 30.7702 23.5699 30.7602 23.8799C30.6202 27.7599 31.9402 31.0099 34.9402 33.5099C35.4702 33.9499 36.1002 34.2599 36.7102 34.5999C37.1202 34.8299 37.3202 34.6799 37.3702 34.2099C37.9002 29.1399 40.0002 24.8099 43.5002 21.1499C44.0002 20.6299 44.6302 20.2199 45.2302 19.7999C45.6102 19.5399 45.9502 19.6599 46.0802 20.0899C47.1002 23.5299 49.2102 26.2899 51.5102 28.9399C52.8902 30.5199 54.2702 32.0999 55.4102 33.8799C57.3802 36.9699 58.1602 40.3599 57.8202 43.9899C57.2202 50.3999 54.0402 55.1699 48.4802 58.3699C48.2902 58.4799 47.9502 58.5399 47.8002 58.4399C47.6402 58.3399 47.5402 58.0099 47.5602 57.7899C47.9502 53.3199 46.4502 49.4899 43.6302 46.0999C42.5402 44.7899 41.2902 43.6499 39.9202 42.5999L39.9402 42.5899Z" fill="#8784D3" fill-opacity="0.12"/>
</g>
<path d="M65.9901 15.37C66.4301 14.91 66.8301 14.5 67.2301 14.09C67.9201 13.4 68.6101 12.71 69.3001 12.02C69.5601 11.76 69.8601 11.66 70.2101 11.8C70.5701 11.95 70.7501 12.23 70.7501 12.61C70.7501 16.54 70.7501 20.48 70.7501 24.41C70.7501 24.45 70.7401 24.49 70.7301 24.55C70.6401 24.55 70.5501 24.58 70.4701 24.58C66.6101 24.58 62.7401 24.58 58.8801 24.58C58.5501 24.58 58.2701 24.5 58.0801 24.22C57.8301 23.86 57.8801 23.46 58.2301 23.1C59.2301 22.09 60.2301 21.09 61.2301 20.09C61.3001 20.02 61.3601 19.95 61.4801 19.82C60.5701 18.98 59.7101 18.11 58.7701 17.32C54.6001 13.82 49.8301 11.57 44.4401 10.8C35.1901 9.48002 27.0101 11.94 20.0501 18.2C15.2901 22.48 12.3101 27.83 11.0101 34.1C10.3201 37.39 10.2401 40.71 10.6901 44.04C10.9401 45.93 9.82012 47.38 7.89012 47.64C6.07012 47.89 4.56012 46.74 4.33012 44.88C3.26012 36.54 4.77012 28.69 9.14012 21.5C14.4101 12.85 22.0201 7.19002 31.9101 4.97002C43.2301 2.43002 53.5001 4.92002 62.5901 12.17C63.6701 13.03 64.6401 14.05 65.6601 14.99C65.7701 15.09 65.8501 15.21 65.9901 15.37Z" fill="#5A57AC"/>
<path d="M13.9101 64.67C12.7901 65.79 11.7501 66.86 10.6701 67.9C10.4801 68.09 10.1701 68.23 9.91013 68.25C9.44013 68.28 9.13013 67.87 9.13013 67.32C9.13013 65.17 9.13013 63.01 9.13013 60.86C9.13013 59.07 9.13013 57.28 9.13013 55.42C9.29013 55.42 9.43013 55.42 9.57013 55.42C13.3501 55.42 17.1401 55.42 20.9201 55.42C21.3601 55.42 21.7201 55.52 21.9001 55.96C22.0801 56.39 21.8901 56.7 21.5901 57C20.5501 58.04 19.5101 59.08 18.4101 60.17C19.1301 60.86 19.8201 61.57 20.5601 62.22C24.8501 65.98 29.8101 68.33 35.4401 69.22C50.5301 71.6 65.1301 61.77 68.6501 46.87C69.5001 43.28 69.6701 39.65 69.1801 35.99C68.9301 34.13 70.0301 32.64 71.8301 32.38C73.7801 32.1 75.2801 33.18 75.5401 35.09C76.4101 41.67 75.6601 48.06 72.9701 54.13C68.3601 64.53 60.5601 71.4 49.6501 74.64C44.7801 76.09 39.8001 76.36 34.7701 75.61C26.7301 74.41 19.9001 70.86 14.2301 65.06C14.1301 64.96 14.0401 64.84 13.9101 64.69V64.67Z" fill="#5A57AC"/>
<defs>
<filter id="filter0_biii_492_9389" x="9.95264" y="7.66357" width="59.9447" height="62.8628" filterUnits="userSpaceOnUse" color-interpolation-filters="sRGB">
<feFlood flood-opacity="0" result="BackgroundImageFix"/>
<feGaussianBlur in="BackgroundImageFix" stdDeviation="6"/>
<feComposite in2="SourceAlpha" operator="in" result="effect1_backgroundBlur_492_9389"/>
<feBlend mode="normal" in="SourceGraphic" in2="effect1_backgroundBlur_492_9389" result="shape"/>
<feColorMatrix in="SourceAlpha" type="matrix" values="0 0 0 0 0 0 0 0 0 0 0 0 0 0 0 0 0 0 127 0" result="hardAlpha"/>
<feOffset dy="2"/>
<feGaussianBlur stdDeviation="8"/>
<feComposite in2="hardAlpha" operator="arithmetic" k2="-1" k3="1"/>
<feColorMatrix type="matrix" values="0 0 0 0 0.211765 0 0 0 0 0.501961 0 0 0 0 1 0 0 0 0.76 0"/>
<feBlend mode="normal" in2="shape" result="effect2_innerShadow_492_9389"/>
<feColorMatrix in="SourceAlpha" type="matrix" values="0 0 0 0 0 0 0 0 0 0 0 0 0 0 0 0 0 0 127 0" result="hardAlpha"/>
<feOffset dy="2"/>
<feGaussianBlur stdDeviation="1"/>
<feComposite in2="hardAlpha" operator="arithmetic" k2="-1" k3="1"/>
<feColorMatrix type="matrix" values="0 0 0 0 0.211765 0 0 0 0 0.501961 0 0 0 0 1 0 0 0 0.1 0"/>
<feBlend mode="normal" in2="effect2_innerShadow_492_9389" result="effect3_innerShadow_492_9389"/>
<feColorMatrix in="SourceAlpha" type="matrix" values="0 0 0 0 0 0 0 0 0 0 0 0 0 0 0 0 0 0 127 0" result="hardAlpha"/>
<feOffset dy="0.5"/>
<feGaussianBlur stdDeviation="0.25"/>
<feComposite in2="hardAlpha" operator="arithmetic" k2="-1" k3="1"/>
<feColorMatrix type="matrix" values="0 0 0 0 0.211765 0 0 0 0 0.501961 0 0 0 0 1 0 0 0 0.05 0"/>
<feBlend mode="normal" in2="effect3_innerShadow_492_9389" result="effect4_innerShadow_492_9389"/>
</filter>
</defs>
</svg>
